<svg xmlns="http://www.w3.org/2000/svg" xmlns:xlink="http://www.w3.org/1999/xlink"><defs><style>
    .sprite-symbol-usage {display: none;}
    .sprite-symbol-usage:target {display: inline;}
  </style><symbol fill="currentcolor" viewBox="0 0 40.62 17.03" id="arrow"><path class="cls-1" d="M20.31 17.03 0 .78.62 0l19.69 15.75L40 0l.62.78-20.31 16.25z" /></symbol><symbol fill="none" viewBox="0 0 14 16" id="arrow-bold"><path d="M13 14.062 2.5 8 13 1.938v12.124Z" fill="currentColor" /></symbol><symbol fill="none" viewBox="0 0 18 18" id="arrow-fill"><path d="M14.562 1.661 8.5 12.161l-6.062-10.5h12.124Z" fill="currentColor" stroke="currentColor" stroke-width="2" /></symbol><symbol fill="none" viewBox="0 0 97 57" id="atr"><path d="M4.2 29.61a3.305 3.305 0 1 0 0 6.61 3.305 3.305 0 1 0 0-6.61ZM92.74 29.61a3.305 3.305 0 1 0 0 6.61 3.305 3.305 0 1 0 0-6.61ZM37.075 55.27s.509-1.16-.605-5.784h-9.245c-1.162 4.624-.653 5.784-.653 5.784h-7.24s1.034-1.16 2.514-7.087l4.71-18.462c1.162-4.608.414-7.087.414-7.087h8.911s0 2.479 1.162 7.087l4.71 18.462c1.496 5.927 2.562 7.087 2.562 7.087h-7.288.048Zm-8.737-10.392h6.954l-3.5-14.585-3.454 14.585ZM51.826 6.65v20.274c0 4.338.7 7.42.7 7.42h-7.002s.7-3.082.7-7.42V6.65c-4.391 0-7.845.7-7.845.7L40.241.723s3.135.985 6.954.985h3.644c3.835 0 6.907-.985 6.907-.985l1.861 6.625s-3.453-.699-7.797-.699h.016ZM80.12 54.856c-2.562 2.145-6.955 1.955-8.132-1.906l-1.353-4.656c-1.4-4.432-2.005-6.1-4.44-6.1h-1.034v6.021c0 4.338.7 7.086.7 7.086h-7.097s.7-2.748.7-7.086V29.752c0-4.385-.604-7.086-.604-7.086h8.88c6.81 0 10.28 3.448 10.28 9.04 0 4.1-1.863 7.182-5.555 8.58 2.658 1.16 3.215 3.258 4.058 6.721 1.066 4.481 2.005 6.8 3.597 7.881v-.032Zm-14.943-27.28v9.835h1.4c3.454 0 5.697-2.002 5.697-5.132s-2.148-4.703-5.601-4.703h-1.496Z" fill="#F6EEDC" /></symbol><symbol viewBox="0 0 543.1 386.85" id="chevron"><path fill="currentcolor" d="M261.28 386.85 0 60.24 73.52 1.43l190.66 238.31L471.95 0l71.16 61.66-281.83 325.19z" /></symbol><symbol viewBox="0 0 12.13 21.41" id="chevron-right"><path fill="currentColor" d="M1.41 21.41.03 19.97l9.28-8.91L0 1.39 1.44 0l10.69 11.12L1.41 21.41z" /></symbol><symbol fill="none" viewBox="0 0 227 114" id="ellerslie"><path d="M7.587 84.739v-10.12h2.05c5.07 0 8.149 1.065 8.149 1.065l1.132-6.283H7.588v-10.65h3.075c5.074 0 10.308.904 10.308.904l-1.08-6.551H.191s.811 3.143.811 8.095v21.088c0 5.005-.81 8.095-.81 8.095H5.21c9.497 0 13.383 1.173 13.383 1.173l3.075-7.986c-3.022.852-5.612 1.173-12.304 1.173h-1.78l.003-.003ZM35.642 84.739V61.572c0-5.004.81-8.468.81-8.468H28.36s.81 3.46.81 8.468v20.29c0 5.004-.81 8.52-.81 8.52h8.797c5.45 0 8.581 1.117 8.581 1.117l3.238-7.56s-5.18.8-10.255.8H35.642ZM61.547 84.739V61.572c0-5.004.81-8.468.81-8.468h-8.096s.81 3.46.81 8.468v20.29c0 5.004-.81 8.52-.81 8.52h8.797c5.45 0 8.581 1.117 8.581 1.117l3.238-7.56s-5.18.8-10.255.8h-3.075ZM87.548 84.739v-10.12h2.049c5.074 0 8.15 1.065 8.15 1.065l1.132-6.283H87.548v-10.65h3.075c5.075 0 10.308.904 10.308.904l-1.08-6.551H80.157s.81 3.143.81 8.095v21.088c0 5.005-.81 8.095-.81 8.095h5.02c9.499 0 13.384 1.173 13.384 1.173l3.075-7.986c-3.022.852-5.612 1.173-12.304 1.173h-1.78l-.003-.003ZM128.83 80.904c-.97-3.939-1.618-6.338-4.696-7.668 4.264-1.596 6.423-5.113 6.423-9.799 0-6.39-3.995-10.333-11.873-10.333h-10.251s.701 3.087.701 8.095v21.088c0 4.952-.811 8.095-.811 8.095h8.203s-.81-3.143-.81-8.095v-6.869h1.185c2.806 0 3.507 1.917 5.128 6.977l1.564 5.326c1.348 4.42 6.422 4.634 9.391 2.182-1.836-1.225-2.912-3.886-4.154-8.999Zm-11.494-10.916h-1.617V58.751h1.727c3.991 0 6.475 1.756 6.475 5.377 0 3.622-2.59 5.86-6.585 5.86ZM143.613 61.308c0-2.238 1.996-3.73 4.424-3.73 2.859 0 5.18 2.291 6.153 3.514l-.97-7.83c-1.836-.904-3.669-1.33-6.475-1.33-5.45 0-9.82 3.674-9.82 9.533 0 4.366 2.052 7.135 7.229 12.834 3.132 3.513 4.211 4.9 4.211 7.03 0 2.769-2.211 4.312-4.749 4.312-2.048 0-4.533-.744-7.339-4.313l1.026 8.308c1.89 1.065 4.802 1.812 7.555 1.812 5.507 0 10.309-3.834 10.309-9.638 0-4.42-1.674-7.295-7.233-13.42-3.454-3.73-4.318-5.112-4.318-7.082h-.003ZM168.976 84.739V61.572c0-5.004.81-8.468.81-8.468h-8.093s.811 3.46.811 8.468v20.29c0 5.004-.811 8.52-.811 8.52h8.797c5.45 0 8.582 1.117 8.582 1.117l3.237-7.56s-5.18.8-10.254.8h-3.079ZM195.791 53.104h-8.202s.81 3.09.81 8.095v21.088c0 4.952-.81 8.095-.81 8.095h8.202s-.81-3.143-.81-8.095V61.2c0-5.005.81-8.095.81-8.095ZM213.815 84.739h-1.78v-10.12h2.049c5.075 0 8.15 1.065 8.15 1.065l1.132-6.283h-11.331v-10.65h3.075c5.075 0 10.308.904 10.308.904l-1.079-6.551h-19.696s.81 3.143.81 8.095v21.088c0 5.005-.81 8.095-.81 8.095h5.018c9.498 0 13.383 1.173 13.383 1.173l3.075-7.986c-3.022.852-5.612 1.173-12.304 1.173v-.003ZM83.22 111.541h-4.971v-2.117l3.078.013c1.139 0 1.856.18 1.856.18l.316-1.363-5.25-.014v-2.523h4.436c1.14 0 2.305.18 2.305.18l-.402-1.458h-7.963s.182.777.169 1.901v4.568c0 1.124-.183 1.901-.183 1.901h4.67c2.812 0 3.503.262 3.503.262l.727-1.698s-1.152.181-2.291.168ZM96.907 106.336l-2.57 5.394-2.558-5.394c-.534-1.137-.558-1.904-.558-1.904h-2.049s.558.776 1.103 1.904l2.218 4.568c.654 1.35.545 1.901.545 1.901h2.52s.037-.682.631-1.901l2.219-4.558c.544-1.125 1.116-1.901 1.116-1.901l-1.976-.013s.01.537-.645 1.904h.004ZM110.475 111.541h-4.972v-2.117l3.079.013c1.139 0 1.856.18 1.856.18l.316-1.363-5.251-.014v-2.523h4.437c1.139 0 2.305.18 2.305.18l-.402-1.458h-7.964s.183.777.17 1.901v4.568c0 1.124-.183 1.901-.183 1.901h4.669c2.813 0 3.504.262 3.504.262l.727-1.698s-1.152.181-2.291.168ZM125.537 106.336l-.014 4.535-4.546-4.906c-.764-.825-1.162-1.53-1.162-1.53h-2.195s.182.767.182 1.891v4.568c0 1.124-.182 1.914-.182 1.914h1.806s-.169-.79-.169-1.914v-4.666l4.546 5.037c.764.839 1.162 1.543 1.162 1.543h2.026v-6.472c0-1.124.183-1.904.183-1.904h-1.82s.183.776.183 1.904ZM136.608 104.435h-.946c-2.813 0-3.261-.252-3.261-.252l-.728 1.698s1.043-.181 2.169-.181h1.564v5.205c0 1.124-.183 1.9-.183 1.9h1.82s-.182-.776-.182-1.9V105.7h1.55c1.139 0 2.172.181 2.172.181l-.727-1.698s-.435.252-3.248.252ZM149.112 107.835c-1.856-.145-3.201-.335-3.201-1.22 0-.934 1.637-1.183 2.982-1.183 1.83 0 3.274.6 3.782.944l-.242-1.602c-.814-.299-2.534-.587-3.563-.587-2.438 0-4.45.862-4.45 2.523 0 1.819 2.158 2.311 4.496 2.501 2.135.18 3.175.442 3.175 1.304 0 .862-1.139 1.305-3.032 1.305-2.242 0-3.696-.885-4.802-1.76l.365 1.973c1.126.609 3.042 1.029 4.497 1.029 2.885 0 4.473-1.079 4.473-2.668 0-1.747-1.843-2.356-4.487-2.559h.007ZM150.552 37.21c0-20.456-16.867-37.1-37.596-37.1-20.729 0-37.596 16.644-37.596 37.1v1.626h75.192V37.21Zm-71.864-1.622c.388-8.11 3.693-15.481 8.89-21.121l9.305 9.182a20.625 20.625 0 0 0-5.021 11.94H78.685h.003Zm32.621 0h-16.14c.784-8.429 7.599-15.154 16.14-15.927v15.927Zm0-19.188c-4.6.35-8.787 2.157-12.098 4.952l-9.305-9.183a34.39 34.39 0 0 1 21.403-8.773V16.4ZM114.6 3.396a34.382 34.382 0 0 1 21.403 8.773l-9.305 9.183A21.212 21.212 0 0 0 114.6 16.4V3.396Zm0 32.192V19.661c8.541.773 15.356 7.498 16.139 15.927H114.6Zm19.444 0c-.356-4.539-2.186-8.671-5.022-11.939l9.306-9.182c5.197 5.64 8.501 13.007 8.89 21.121H134.04h.004Z" fill="#F6EEDC" /></symbol><symbol fill="none" viewBox="0 0 610 237" id="events-visit-name"><path d="M139.102 69.398s1.06-2.409-1.252-11.914h-19.028c-2.409 9.521-1.349 11.914-1.349 11.914h-14.901s2.12-2.409 5.187-14.612l9.714-38.071c2.409-9.522.867-14.612.867-14.612h18.353s0 5.09 2.409 14.612l9.714 38.071c3.083 12.203 5.283 14.612 5.283 14.612h-14.997Zm-17.968-21.436h14.323l-7.21-30.091-7.113 30.09ZM201.674 2.023s-1.252 5.668-1.252 14.708v30.861c0 17.005-9.522 23.749-20.28 23.749-10.758 0-20.28-6.728-20.28-23.748V16.715c0-9.04-1.253-14.708-1.253-14.708h14.227s-1.156 5.668-1.156 14.708V51.22c0 7.017 4.801 9.908 8.558 9.908 3.758 0 8.462-2.875 8.462-9.908V16.715c0-9.04-1.252-14.708-1.252-14.708h14.226v.016ZM247.904 50.467l-1.446 18.835c-2.023.963-6.727 2.023-10.854 2.023-14.227 0-24.696-12.3-24.696-35.759S221.763 0 235.315 0c5.379 0 9.329 1.734 11.914 3.356l-3.468 15.96c-1.542-6.15-4.705-9.04-8.559-9.04-6.342 0-12.685 7.884-12.685 25.274s7.403 25.37 14.227 25.37c3.741 0 8.269-3.083 11.144-10.485l.016.032ZM293.955 52.57c4.32 8.944 5.957 13.36 9.522 15.575-1.927 2.024-4.705 3.18-7.499 3.18-3.934 0-7.113-2.409-9.136-6.92l-10.662-23.46-4.705 9.233v4.608c0 8.944 1.445 14.612 1.445 14.612h-14.611s1.445-5.668 1.445-14.612V16.715c0-9.04-1.445-14.612-1.445-14.612h14.611s-1.445 5.572-1.445 14.612v16.153l8.462-16.153c4.512-8.848 5.38-14.612 5.38-14.612h15.093s-4.705 5.572-9.233 14.612l-7.306 14.515 10.1 21.34h-.016ZM346.621 57.757l-5.765 13.648s-5.571-2.023-15.286-2.023h-15.672s1.446-6.343 1.446-15.383V17.39c0-9.04-1.446-15.286-1.446-15.286h14.42s-1.445 6.246-1.445 15.286v41.813h5.475c9.04 0 18.257-1.445 18.257-1.445h.016ZM385.545 69.398s1.06-2.409-1.252-11.914h-19.028c-2.408 9.521-1.348 11.914-1.348 11.914h-14.901s2.119-2.409 5.186-14.612l9.715-38.071c2.408-9.522.867-14.612.867-14.612h18.353s0 5.09 2.408 14.612l9.715 38.071c3.083 12.203 5.283 14.612 5.283 14.612h-14.998Zm-17.967-21.436H381.9l-7.209-30.091-7.113 30.09ZM450.428 16.715v52.667h-11.721c0-23.363-13.36-32.098-18.835-39.982v25.37c0 8.944 1.445 14.612 1.445 14.612h-14.612s1.349-5.668 1.349-14.612V16.715c0-9.04-1.349-14.612-1.349-14.612h13.167c0 13.649 12.685 23.347 18.835 32.676V16.715c0-9.04-1.445-14.612-1.445-14.612h14.611s-1.445 5.572-1.445 14.612ZM506.66 35.758c0 16.443-6.246 33.64-29.417 33.64h-14.419s1.445-5.668 1.445-14.612V16.715c0-9.04-1.445-14.612-1.445-14.612h14.419c23.171 0 29.417 17.39 29.417 33.64v.015Zm-11.914 0c0-11.24-3.838-23.459-18.161-23.459h-.578v46.806h.578c14.323 0 18.161-12.01 18.161-23.346ZM28.276 95.123v41.812c0 8.944 1.445 15.287 1.445 15.287H15.302s1.445-6.343 1.445-15.287V95.123c-9.04 0-16.153 1.445-16.153 1.445L4.43 82.92s6.44 2.023 14.323 2.023h7.499c7.884 0 14.226-2.023 14.226-2.023l3.838 13.648s-7.113-1.445-16.057-1.445h.016ZM94.401 137.609c0 8.944 1.445 14.612 1.445 14.612H81.234s1.445-5.668 1.445-14.612v-13.744H64.423v13.744c0 8.944 1.445 14.612 1.445 14.612H51.256s1.445-5.668 1.445-14.612v-38.07c0-9.04-1.445-14.613-1.445-14.613h14.612s-1.445 5.572-1.445 14.612v14.034h18.256V99.538c0-9.04-1.445-14.612-1.445-14.612h14.612s-1.445 5.572-1.445 14.612v38.071ZM148.717 117.907c0 26.141-9.425 36.241-21.629 36.241-12.203 0-21.436-12.3-21.436-35.759 0-23.46 8.366-35.566 21.725-35.566 13.36 0 21.34 12.878 21.34 35.084Zm-11.432.193c0-15.961-3.934-24.985-10.004-24.985-6.069 0-10.196 8.751-10.196 25.274 0 16.523 4.127 25.37 10.1 25.37s10.1-7.017 10.1-25.659ZM202.446 151.354c-5.283 4.416-14.323 4.047-16.731-3.934l-2.794-9.618c-2.89-9.136-4.127-12.589-9.137-12.589h-2.119v12.396c0 8.944 1.445 14.612 1.445 14.612h-14.612s1.445-5.668 1.445-14.612v-38.07c0-9.04-1.252-14.613-1.252-14.613h18.257c14.033 0 21.147 7.114 21.147 18.642 0 8.463-3.838 14.805-11.433 17.679 5.475 2.409 6.632 6.728 8.366 13.841 2.216 9.233 4.126 14.034 7.402 16.25l.016.016Zm-30.765-56.232v20.28h2.89c7.113 0 11.722-4.126 11.722-10.565 0-6.439-4.416-9.715-11.529-9.715h-3.083ZM249.159 117.907c0 26.141-9.426 36.241-21.629 36.241-12.203 0-21.436-12.3-21.436-35.759 0-23.46 8.365-35.566 21.725-35.566 13.359 0 21.34 12.878 21.34 35.084Zm-11.433.193c0-15.961-3.934-24.985-10.003-24.985-6.07 0-10.197 8.751-10.197 25.274 0 16.523 4.127 25.37 10.1 25.37s10.1-7.017 10.1-25.659ZM301.165 84.845s-1.253 5.668-1.253 14.708v30.845c0 17.021-9.522 23.749-20.28 23.749-10.758 0-20.28-6.728-20.28-23.749V99.553c0-9.04-1.252-14.708-1.252-14.708h14.226s-1.156 5.668-1.156 14.708v34.506c0 7.017 4.801 9.892 8.558 9.892 3.758 0 8.462-2.875 8.462-9.892V99.553c0-9.04-1.252-14.708-1.252-14.708h14.227ZM350.847 113.106s-1.542 8.655-1.542 17.695c0 9.04 1.831 18.257 1.831 18.257-5.861 1.83-9.233 5.09-16.828 5.09-13.841 0-23.941-12.3-23.941-35.759 0-23.46 10.004-35.566 25.081-35.566 4.127 0 9.233 1.445 12.974 4.512l-4.704 14.901c-1.349-5.476-5.379-9.137-8.944-9.137-6.439 0-12.685 8.751-12.685 25.274 0 16.523 4.994 25.37 12.299 25.37 1.349 0 3.083-.385 4.513-1.06v-19.605c-3.276 0-7.017 1.445-7.017 1.445l-2.505-11.529 21.436.096.032.016ZM404.776 137.609c0 8.944 1.445 14.612 1.445 14.612h-14.612s1.445-5.668 1.445-14.612v-13.744h-18.256v13.744c0 8.944 1.445 14.612 1.445 14.612h-14.612s1.445-5.668 1.445-14.612v-38.07c0-9.04-1.445-14.613-1.445-14.613h14.612s-1.445 5.572-1.445 14.612v14.034h18.256V99.538c0-9.04-1.445-14.612-1.445-14.612h14.612s-1.445 5.572-1.445 14.612v38.071ZM458.119 134.349c0 10.662-9.233 17.775-22.688 17.775h-18.257s1.541-5.571 1.541-14.612v-38.07c0-9.04-1.541-14.613-1.541-14.613h15.286c14.419 0 22.689 6.825 22.689 17.39 0 6.824-3.742 12.396-9.811 14.612 8.462 2.409 12.781 9.233 12.781 17.486v.032Zm-27.682-40.078v18.642h1.445c6.921 0 11.336-3.452 11.336-9.329 0-5.877-3.837-9.33-11.336-9.33h-1.445v.017Zm15.575 38.537c0-6.054-4.319-10.1-11.914-10.1h-3.645v19.894h3.645c7.595 0 11.914-3.837 11.914-9.81v.016ZM511.077 151.354c-5.283 4.416-14.323 4.047-16.731-3.934l-2.794-9.618c-2.891-9.136-4.127-12.589-9.137-12.589h-2.119v12.396c0 8.944 1.445 14.612 1.445 14.612h-14.612s1.445-5.668 1.445-14.612v-38.07c0-9.04-1.252-14.613-1.252-14.613h18.256c14.034 0 21.148 7.114 21.148 18.642 0 8.463-3.838 14.805-11.433 17.679 5.475 2.409 6.631 6.728 8.366 13.841 2.215 9.233 4.126 14.034 7.402 16.25l.016.016Zm-30.765-56.232v20.28h2.89c7.113 0 11.722-4.126 11.722-10.565 0-6.439-4.416-9.715-11.529-9.715h-3.083ZM556.557 139.922l-5.476 14.419s-6.92-2.12-23.844-2.12h-8.944s1.445-5.572 1.445-14.612v-38.07c0-8.945-1.445-14.613-1.445-14.613h35.085l1.926 11.818s-9.329-1.638-18.353-1.638h-5.475v19.221h20.183l-2.023 11.336s-5.475-1.927-14.515-1.927h-3.645v18.273h3.179c11.914 0 16.539-.578 21.918-2.12l-.016.033ZM609.408 118.582c0 16.442-6.246 33.639-29.417 33.639h-14.419s1.445-5.668 1.445-14.612v-38.07c0-9.04-1.445-14.613-1.445-14.613h14.419c23.171 0 29.417 17.406 29.417 33.64v.016Zm-11.914 0c0-11.24-3.838-23.46-18.161-23.46h-.578v46.807h.578c14.323 0 18.161-12.011 18.161-23.363v.016ZM217.591 234.176c-5.283 4.416-14.323 4.047-16.732-3.934l-2.794-9.618c-2.89-9.136-4.126-12.588-9.136-12.588h-2.12v12.396c0 8.943 1.445 14.611 1.445 14.611h-14.611s1.445-5.668 1.445-14.611V182.36c0-9.04-1.253-14.611-1.253-14.611h18.257c14.034 0 21.147 7.113 21.147 18.642 0 8.462-3.837 14.804-11.432 17.678 5.475 2.409 6.631 6.728 8.365 13.842 2.216 9.232 4.127 14.033 7.403 16.249l.016.016Zm-30.766-56.231v20.28h2.891c7.113 0 11.721-4.127 11.721-10.566 0-6.439-4.415-9.714-11.529-9.714h-3.083ZM258.434 235.043s1.06-2.408-1.252-11.914h-19.028c-2.409 9.522-1.349 11.914-1.349 11.914h-14.901s2.12-2.408 5.187-14.611l9.714-38.072c2.409-9.521.867-14.611.867-14.611h18.353s0 5.09 2.409 14.611l9.715 38.072c3.082 12.203 5.282 14.611 5.282 14.611h-14.997Zm-17.968-21.436h14.323l-7.21-30.09-7.113 30.09ZM311.88 216.113l-1.445 18.835c-2.023.963-6.728 2.023-10.855 2.023-14.226 0-24.695-12.3-24.695-35.759 0-23.46 10.854-35.566 24.406-35.566 5.38 0 9.33 1.734 11.915 3.371l-3.469 15.961c-1.541-6.15-4.704-9.04-8.558-9.04-6.343 0-12.685 7.884-12.685 25.274s7.402 25.37 14.227 25.37c3.741 0 8.269-3.083 11.143-10.469h.016ZM335.434 220.432c0 8.943 1.445 14.611 1.445 14.611h-14.611s1.445-5.668 1.445-14.611V182.36c0-9.04-1.445-14.611-1.445-14.611h14.611s-1.445 5.571-1.445 14.611v38.072ZM391.565 182.376v52.667h-11.722c0-23.346-13.359-32.097-18.834-39.981v25.37c0 8.943 1.445 14.611 1.445 14.611h-14.612s1.349-5.668 1.349-14.611V182.36c0-9.04-1.349-14.611-1.349-14.611h13.167c0 13.648 12.685 23.362 18.834 32.676V182.36c0-9.04-1.445-14.611-1.445-14.611h14.612s-1.445 5.571-1.445 14.611v.016ZM441.63 195.929s-1.541 8.655-1.541 17.695c0 9.04 1.83 18.257 1.83 18.257-5.861 1.83-9.233 5.09-16.828 5.09-13.841 0-23.941-12.3-23.941-35.759 0-23.46 10.004-35.566 25.081-35.566 4.127 0 9.233 1.445 12.975 4.512l-4.705 14.9c-1.349-5.475-5.379-9.136-8.944-9.136-6.439 0-12.685 8.751-12.685 25.274 0 16.522 4.994 25.37 12.3 25.37 1.348 0 3.083-.386 4.512-1.06V205.9c-3.276 0-7.017 1.446-7.017 1.446l-2.505-11.529 21.436.096.032.016ZM70.441 209.046c1.686 2.168 3.18 2.617 4.416 2.617 1.525 0 2.858-.947 2.858-2.617 0-1.3-.642-2.135-2.52-4.287-3.116-3.468-4.352-5.154-4.352-7.82 0-3.564 2.617-5.796 5.893-5.796 1.686 0 2.794.256 3.886.818l.578 4.769c-.578-.738-1.975-2.135-3.694-2.135-1.46 0-2.665.899-2.665 2.264 0 1.204.514 2.039 2.601 4.319 3.34 3.725 4.352 5.476 4.352 8.173 0 3.533-2.89 5.861-6.198 5.861-1.654 0-3.404-.45-4.544-1.108l-.61-5.058ZM89.178 209.626c0 3.018.482 4.929.482 4.929h-4.93s.482-1.911.482-4.929v-12.83c0-3.051-.481-4.929-.481-4.929h4.929s-.482 1.878-.482 4.929v12.83ZM108.766 196.796v17.759h-3.95c0-7.884-4.512-10.822-6.358-13.488v8.559c0 3.018.481 4.929.481 4.929h-4.93s.45-1.911.45-4.929v-12.83c0-3.051-.45-4.929-.45-4.929h4.449c0 4.608 4.271 7.868 6.358 11.015v-6.086c0-3.051-.482-4.929-.482-4.929h4.93s-.482 1.878-.482 4.929h-.016ZM125.148 208.181l-.482 6.358c-.674.321-2.264.675-3.661.675-4.801 0-8.333-4.143-8.333-12.059 0-7.916 3.661-11.995 8.237-11.995 1.815 0 3.147.578 4.014 1.14l-1.172 5.379c-.514-2.071-1.589-3.051-2.89-3.051-2.136 0-4.271 2.666-4.271 8.527 0 5.861 2.489 8.558 4.801 8.558 1.268 0 2.794-1.044 3.757-3.532ZM141.539 210.411l-1.847 4.865s-2.328-.706-8.044-.706h-3.019s.482-1.879.482-4.93v-12.829c0-3.019-.482-4.93-.482-4.93h11.834l.642 3.982s-3.147-.546-6.198-.546h-1.846v6.487h6.808l-.675 3.822s-1.846-.642-4.897-.642h-1.236v6.166h1.075c4.015 0 5.572-.193 7.387-.707l.016-.032ZM474.356 209.079v-11.577s-.738.386-2.071.386v-3.308c1.59-.032 3.051-1.172 3.436-2.73h2.923s-.386 2.425-.386 5.476l-.032 11.737c0 3.051.482 5.476.482 5.476h-4.994s.642-2.473.642-5.476v.016ZM485.352 202.591c-1.847-.947-2.955-2.922-2.955-5.218 0-3.95 2.73-6.23 6.455-6.23s6.519 2.264 6.519 6.23c0 2.296-1.076 4.271-2.954 5.218 1.589.867 3.34 2.489 3.34 5.797 0 4.271-2.666 6.808-6.905 6.808-4.239 0-6.84-2.521-6.84-6.808 0-3.308 1.75-4.93 3.34-5.797Zm3.5 1.622c-1.622 0-2.987 1.333-2.987 3.789 0 2.826 1.365 3.758 2.987 3.758s2.987-.948 2.987-3.758c0-2.472-1.333-3.789-2.987-3.789Zm0-9.634c-1.269 0-2.553.867-2.553 3.308 0 2.44 1.012 3.371 2.553 3.371s2.633-.899 2.633-3.371c0-2.473-1.268-3.308-2.633-3.308ZM497.028 195.928l1.557-4.737s.771.675 3.533.675h6.744l.417 2.392c-.578.851-1.076 2.104-1.975 4.769l-3.372 10.052c-1.076 3.115-1.268 5.475-1.268 5.475h-5.026s1.301-2.36 2.36-5.475l4.641-13.777h-3.212c-2.103-.032-4.415.61-4.415.61l.016.016ZM522.701 209.69h-2.425c.096 2.537.45 4.865.45 4.865h-4.673s.385-2.36.482-4.865h-7.033l-1.301-2.232 8.173-15.591h4.352s-.45 2.424-.45 5.475v8.976c2.553-.128 3.693-.578 3.693-.578l-1.268 3.95Zm-6.166-11.738-4.384 8.398h4.384v-8.398Z" fill="#F6EEDC" /></symbol><symbol fill="none" viewBox="0 0 90 90" id="play"><circle cx="45" cy="45" r="45" fill="#F6EEDC" /><path d="M68.677 45.726 32.75 66.469V24.983l35.927 20.743Z" fill="#141414" /></symbol><symbol fill="none" viewBox="0 0 91 90" id="play-button"><circle cx="45.804" cy="45" r="45" fill="#F6EEDC" /><path d="M69.48 45.726 33.554 66.469V24.983l35.928 20.743Z" fill="#141414" /></symbol><symbol fill="currentcolor" viewBox="0 0 14.17 14.82" id="user"><path class="cls-1" d="M7.08 0C6 0 4.96.43 4.2 1.19a4.08 4.08 0 0 0 0 5.76 4.08 4.08 0 0 0 5.76 0c.77-.76 1.19-1.8 1.19-2.88s-.43-2.12-1.19-2.88A4.08 4.08 0 0 0 7.08 0ZM5.26 2.26c.48-.48 1.14-.76 1.82-.76s1.34.27 1.82.76c.48.48.76 1.14.76 1.82S9.39 5.42 8.9 5.9c-.48.48-1.14.76-1.82.76s-1.34-.27-1.82-.76c-.48-.48-.76-1.14-.76-1.82s.27-1.34.76-1.82Zm1.82 6.46c-1.57 0-3.09.5-4.36 1.42a7.368 7.368 0 0 0-2.69 3.71.76.76 0 0 0 .11.67c.14.19.37.31.61.31h12.67c.24 0 .47-.11.61-.31a.76.76 0 0 0 .11-.67 7.368 7.368 0 0 0-2.69-3.71 7.424 7.424 0 0 0-4.36-1.42Zm-3.47 2.63c1.01-.73 2.23-1.13 3.47-1.13s2.46.4 3.47 1.13c.72.52 1.31 1.2 1.73 1.98H1.88c.42-.78 1.01-1.45 1.73-1.98Z" /></symbol></defs><use id="arrow-usage" xlink:href="#arrow" class="sprite-symbol-usage" /><use id="arrow-bold-usage" xlink:href="#arrow-bold" class="sprite-symbol-usage" /><use id="arrow-fill-usage" xlink:href="#arrow-fill" class="sprite-symbol-usage" /><use id="atr-usage" xlink:href="#atr" class="sprite-symbol-usage" /><use id="chevron-usage" xlink:href="#chevron" class="sprite-symbol-usage" /><use id="chevron-right-usage" xlink:href="#chevron-right" class="sprite-symbol-usage" /><use id="ellerslie-usage" xlink:href="#ellerslie" class="sprite-symbol-usage" /><use id="events-visit-name-usage" xlink:href="#events-visit-name" class="sprite-symbol-usage" /><use id="play-usage" xlink:href="#play" class="sprite-symbol-usage" /><use id="play-button-usage" xlink:href="#play-button" class="sprite-symbol-usage" /><use id="user-usage" xlink:href="#user" class="sprite-symbol-usage" /></svg>