<svg xmlns="http://www.w3.org/2000/svg" width="100%" height="100%" viewBox="0 0 52.8 30.68"><path d="M1.84,16a1.83,1.83,0,1,0,1.83,1.82A1.82,1.82,0,0,0,1.84,16Z" fill="#141414"/><path d="M51,16a1.83,1.83,0,1,0,1.84,1.82A1.82,1.82,0,0,0,51,16Z" fill="#141414"/><path d="M20.08,30.15s.28-.64-.34-3.2H14.61c-.64,2.56-.36,3.2-.36,3.2h-4s.58-.64,1.4-3.92L14.24,16a7.94,7.94,0,0,0,.23-3.92h5A18.06,18.06,0,0,0,20.06,16l2.61,10.2c.83,3.28,1.42,3.92,1.42,3.92h-4Zm-4.85-5.74h3.86l-1.94-8.07Z" fill="#141414"/><path d="M28.26,3.28v11.2a20.23,20.23,0,0,0,.39,4.1H24.77a20.23,20.23,0,0,0,.39-4.1V3.28a25,25,0,0,0-4.36.38l1-3.66a14.47,14.47,0,0,0,3.85.54h2A14.13,14.13,0,0,0,31.55,0l1,3.66a24.67,24.67,0,0,0-4.33-.38Z" fill="#141414"/><path d="M44,29.92c-1.42,1.19-3.86,1.08-4.51-1.05l-.75-2.58c-.78-2.45-1.11-3.37-2.46-3.37h-.58v3.33a17.34,17.34,0,0,0,.39,3.92H32.11a17.34,17.34,0,0,0,.39-3.92V16a19.92,19.92,0,0,0-.33-3.91h4.92c3.78,0,5.71,1.9,5.71,5a4.71,4.71,0,0,1-3.08,4.75c1.47.64,1.78,1.8,2.25,3.71.59,2.48,1.11,3.76,2,4.36ZM35.67,14.84v5.44h.78c1.91,0,3.16-1.11,3.16-2.84s-1.19-2.6-3.11-2.6Z" fill="#141414"/></svg>