<svg xmlns="http://www.w3.org/2000/svg" width="100%" height="100%" viewBox="0 0 83.07 44"><title>Symbol-Light</title><path d="M83.07,42.15C83.07,18.91,64.44,0,41.54,0S0,18.91,0,42.15V44H83.07ZM3.68,40.31a38.6,38.6,0,0,1,9.82-24L23.78,26.75a23.74,23.74,0,0,0-5.55,13.56H3.68Zm36,0H21.89a19.9,19.9,0,0,1,17.83-18.1Zm0-21.8a23.09,23.09,0,0,0-13.37,5.63L16.07,13.7a37.52,37.52,0,0,1,23.65-10ZM43.35,3.73A37.52,37.52,0,0,1,67,13.7L56.72,24.14a23.11,23.11,0,0,0-13.37-5.63Zm0,36.58V22.21a19.9,19.9,0,0,1,17.83,18.1Zm21.48,0a23.76,23.76,0,0,0-5.54-13.56L69.57,16.31a38.6,38.6,0,0,1,9.82,24Z" fill="#141414"/></svg>