<svg xmlns="http://www.w3.org/2000/svg" width="100%" height="100%" viewBox="0 0 451.39 234.29"><path d="M14.78,175.53v-21h4.09c10.13,0,16.28,2.21,16.28,2.21l2.26-13H14.78V121.63h6.14a134.94,134.94,0,0,1,20.6,1.87l-2.16-13.58H0A76.42,76.42,0,0,1,1.62,126.7v43.74A75.35,75.35,0,0,1,0,187.23H10c19,0,26.73,2.44,26.73,2.44l6.15-16.57c-6,1.77-11.21,2.44-24.58,2.44H14.78Z" fill="#141414"/><path d="M70.83,175.53v-48a88.49,88.49,0,0,1,1.61-17.56H56.28a88.36,88.36,0,0,1,1.61,17.56v42.08a90.4,90.4,0,0,1-1.61,17.67H73.85c10.89,0,17.15,2.32,17.15,2.32l6.46-15.68A148.8,148.8,0,0,1,77,175.53Z" fill="#141414"/><path d="M122.58,175.53v-48a88,88,0,0,1,1.62-17.56H108a87.84,87.84,0,0,1,1.62,17.56v42.08A89.87,89.87,0,0,1,108,187.23H125.6c10.89,0,17.15,2.32,17.15,2.32l6.47-15.68a148.85,148.85,0,0,1-20.49,1.66Z" fill="#141414"/><path d="M174.53,175.53v-21h4.1c10.13,0,16.28,2.21,16.28,2.21l2.26-13H174.53V121.63h6.15a134.9,134.9,0,0,1,20.59,1.87l-2.15-13.58H159.76a76.42,76.42,0,0,1,1.62,16.78v43.74a75.35,75.35,0,0,1-1.62,16.79h10c19,0,26.73,2.44,26.73,2.44l6.15-16.57c-6,1.77-11.21,2.44-24.58,2.44h-3.57Z" fill="#141414"/><path d="M257,167.58c-1.93-8.17-3.23-13.15-9.38-15.91,8.52-3.31,12.83-10.6,12.83-20.32,0-13.26-8-21.43-23.72-21.43H216.26a86.51,86.51,0,0,1,1.4,16.78v43.74A76.57,76.57,0,0,1,216,187.23h16.39a76.57,76.57,0,0,1-1.62-16.79V156.2h2.37c5.61,0,7,4,10.24,14.47l3.13,11c2.69,9.17,12.83,9.62,18.76,4.53C261.64,183.7,259.49,178.18,257,167.58Zm-23-22.65h-3.23v-23.3h3.45c8,0,12.94,3.64,12.94,11.15S242,144.93,234.05,144.93Z" fill="#141414"/><path d="M286.55,126.93c0-4.64,4-7.73,8.84-7.73,5.71,0,10.34,4.75,12.29,7.28l-1.94-16.24c-3.67-1.87-7.33-2.75-12.94-2.75-10.88,0-19.61,7.61-19.61,19.77,0,9,4.09,14.8,14.44,26.62,6.25,7.28,8.41,10.16,8.41,14.58,0,5.74-4.42,8.94-9.49,8.94-4.09,0-9.05-1.54-14.66-8.94l2.05,17.23A31.84,31.84,0,0,0,289,189.45c11,0,20.6-8,20.6-20,0-9.16-3.34-15.13-14.45-27.83-6.9-7.73-8.63-10.6-8.63-14.69Z" fill="#141414"/><path d="M337.22,175.53v-48a88,88,0,0,1,1.62-17.56H322.67a87.84,87.84,0,0,1,1.62,17.56v42.08a89.87,89.87,0,0,1-1.62,17.67h17.58c10.89,0,17.14,2.32,17.14,2.32l6.47-15.68a148.85,148.85,0,0,1-20.49,1.66h-6.15Z" fill="#141414"/><path d="M390.8,109.92H374.41A75.3,75.3,0,0,1,376,126.7v43.74a76.57,76.57,0,0,1-1.62,16.79H390.8a76.57,76.57,0,0,1-1.62-16.79V126.7A75.3,75.3,0,0,1,390.8,109.92Z" fill="#141414"/><path d="M426.81,175.53h-3.56v-21h4.1c10.14,0,16.28,2.21,16.28,2.21l2.26-13H423.25V121.63h6.15A134.73,134.73,0,0,1,450,123.5l-2.15-13.58H408.48a76.42,76.42,0,0,1,1.62,16.78v43.74a75.35,75.35,0,0,1-1.62,16.79h10c19,0,26.74,2.44,26.74,2.44l6.14-16.57c-6,1.77-11.21,2.44-24.58,2.44Z" fill="#141414"/><path d="M165.89,231.12H156v-4.39l6.15,0a15.87,15.87,0,0,1,3.71.38l.63-2.83-10.49,0V219h8.87a33.78,33.78,0,0,1,4.6.37l-.8-3H152.71a19.15,19.15,0,0,1,.34,3.94v9.48a19.39,19.39,0,0,1-.37,3.94H162c5.62,0,7,.54,7,.54l1.45-3.52A29.79,29.79,0,0,1,165.89,231.12Z" fill="#141414"/><path d="M193.23,220.32l-5.13,11.19L183,220.32a11.49,11.49,0,0,1-1.12-3.95h-4.09a30,30,0,0,1,2.2,3.95l4.43,9.48c1.31,2.8,1.09,3.94,1.09,3.94h5a11.86,11.86,0,0,1,1.26-3.94l4.43-9.46a28.18,28.18,0,0,1,2.23-3.94l-4,0a10.92,10.92,0,0,1-1.29,3.95Z" fill="#141414"/><path d="M220.34,231.12h-9.93v-4.39l6.15,0a16,16,0,0,1,3.71.38l.63-2.83-10.49,0V219h8.86a33.82,33.82,0,0,1,4.61.37l-.81-3H207.16a18.33,18.33,0,0,1,.34,3.94v9.48a19.91,19.91,0,0,1-.36,3.94h9.33c5.61,0,7,.54,7,.54l1.45-3.52A29.84,29.84,0,0,1,220.34,231.12Z" fill="#141414"/><path d="M250.43,220.32l0,9.41-9.08-10.18a18.6,18.6,0,0,1-2.32-3.17h-4.39a19.06,19.06,0,0,1,.37,3.92v9.48a19.9,19.9,0,0,1-.37,4h3.61a21.59,21.59,0,0,1-.34-4V220.1L247,230.55a20.2,20.2,0,0,1,2.32,3.2h4.05V220.32a20.08,20.08,0,0,1,.36-3.95h-3.63A20,20,0,0,1,250.43,220.32Z" fill="#141414"/><path d="M272.55,216.38h-1.89c-5.62,0-6.51-.52-6.51-.52l-1.45,3.52A27.28,27.28,0,0,1,267,219h3.12v10.8a19.91,19.91,0,0,1-.36,3.94h3.63a19.91,19.91,0,0,1-.36-3.94V219h3.1a27.16,27.16,0,0,1,4.34.38L279,215.86S278.17,216.38,272.55,216.38Z" fill="#141414"/><path d="M297.54,223.43c-3.72-.3-6.4-.69-6.4-2.53s3.27-2.45,6-2.45a14.49,14.49,0,0,1,7.56,2l-.49-3.33a25.55,25.55,0,0,0-7.12-1.21c-4.87,0-8.89,1.78-8.89,5.23,0,3.77,4.31,4.79,9,5.19,4.27.37,6.35.91,6.35,2.7s-2.28,2.71-6.06,2.71a14.39,14.39,0,0,1-9.6-3.65l.73,4.09a20.89,20.89,0,0,0,9,2.13c5.77,0,8.93-2.23,8.93-5.53,0-3.62-3.68-4.89-9-5.31Z" fill="#141414"/><path d="M300.41,77C300.41,34.52,266.71,0,225.3,0s-75.12,34.52-75.12,77v3.37H300.41ZM156.83,73.59a70.83,70.83,0,0,1,17.76-43.81l18.59,19a43.68,43.68,0,0,0-10,24.77H156.83Zm65.18,0H189.76c1.57-17.49,15.18-31.43,32.25-33Zm0-39.8a41.57,41.57,0,0,0-24.17,10.27l-18.6-19A67.44,67.44,0,0,1,222,6.82Zm6.57-27A67.37,67.37,0,0,1,271.34,25L252.75,44.06a41.57,41.57,0,0,0-24.17-10.27Zm0,66.77v-33c17.07,1.61,30.68,15.55,32.25,33Zm38.85,0a43.7,43.7,0,0,0-10-24.77l18.59-19a70.83,70.83,0,0,1,17.76,43.81H267.43Z" fill="#141414"/></svg>